<?xml version="1.0" encoding="UTF-8" standalone="no"?><!-- Generator: Gravit.io --><svg xmlns="http://www.w3.org/2000/svg" xmlns:xlink="http://www.w3.org/1999/xlink" style="isolation:isolate" viewBox="0 0 1920 1280" width="1920pt" height="1280pt"><defs><clipPath id="_clipPath_6HmyXg7yWBJBk9WmrjnYgotQPffWy5hl"><rect width="1920" height="1280"/></clipPath></defs><g clip-path="url(#_clipPath_6HmyXg7yWBJBk9WmrjnYgotQPffWy5hl)"><defs><filter id="bUU9PLgCwgFbc8wjjNqFy9HDImmq77Y4" x="-200%" y="-200%" width="400%" height="400%" filterUnits="objectBoundingBox" color-interpolation-filters="sRGB"><feGaussianBlur xmlns="http://www.w3.org/2000/svg" in="SourceGraphic" stdDeviation="12.880827188517085"/><feOffset xmlns="http://www.w3.org/2000/svg" dx="0" dy="20" result="pf_100_offsetBlur"/><feFlood xmlns="http://www.w3.org/2000/svg" flood-color="#000000" flood-opacity="0.65"/><feComposite xmlns="http://www.w3.org/2000/svg" in2="pf_100_offsetBlur" operator="in" result="pf_100_dropShadow"/><feBlend xmlns="http://www.w3.org/2000/svg" in="SourceGraphic" in2="pf_100_dropShadow" mode="normal"/></filter></defs><g filter="url(#bUU9PLgCwgFbc8wjjNqFy9HDImmq77Y4)"><path d=" M 1227.75 92 L 1712.25 92 C 1737.5 92 1758 112.5 1758 137.75 L 1758 412.25 C 1758 437.5 1737.5 458 1712.25 458 L 1227.75 458 C 1202.5 458 1182 437.5 1182 412.25 L 1182 137.75 C 1182 112.5 1202.5 92 1227.75 92 Z " fill="rgb(33,44,54)"/></g><path d=" M 1442.226 458 L 1227.75 458 C 1202.5 458 1182 437.5 1182 412.25 L 1182 191.987 C 1316.163 329.012 1406.065 420.905 1442.226 458 L 1442.226 458 Z " fill="rgb(70,164,241)"/><defs><filter id="7hohz3LjnpARJHiRUycPWKV7HgrFIs5R" x="-200%" y="-200%" width="400%" height="400%" filterUnits="objectBoundingBox" color-interpolation-filters="sRGB"><feGaussianBlur xmlns="http://www.w3.org/2000/svg" in="SourceGraphic" stdDeviation="12.880827188517085"/><feOffset xmlns="http://www.w3.org/2000/svg" dx="0" dy="-10" result="pf_100_offsetBlur"/><feFlood xmlns="http://www.w3.org/2000/svg" flood-color="#000000" flood-opacity="0.4"/><feComposite xmlns="http://www.w3.org/2000/svg" in2="pf_100_offsetBlur" operator="in" result="pf_100_dropShadow"/><feBlend xmlns="http://www.w3.org/2000/svg" in="SourceGraphic" in2="pf_100_dropShadow" mode="normal"/></filter></defs><g filter="url(#7hohz3LjnpARJHiRUycPWKV7HgrFIs5R)"><path d=" M 1525.627 458 L 1227.75 458 C 1202.5 458 1182 437.5 1182 412.25 L 1182 346.146 C 1345.084 399.08 1461.889 437.093 1525.627 458 L 1525.627 458 Z " fill="rgb(165,81,213)"/></g><defs><filter id="D50YTxuBT1TILilJXE2JWkU33ueNCBhr" x="-200%" y="-200%" width="400%" height="400%" filterUnits="objectBoundingBox" color-interpolation-filters="sRGB"><feGaussianBlur xmlns="http://www.w3.org/2000/svg" in="SourceGraphic" stdDeviation="2.146804531419514"/><feOffset xmlns="http://www.w3.org/2000/svg" dx="0" dy="0" result="pf_100_offsetBlur"/><feFlood xmlns="http://www.w3.org/2000/svg" flood-color="#000000" flood-opacity="0.5"/><feComposite xmlns="http://www.w3.org/2000/svg" in2="pf_100_offsetBlur" operator="in" result="pf_100_dropShadow"/><feBlend xmlns="http://www.w3.org/2000/svg" in="SourceGraphic" in2="pf_100_dropShadow" mode="normal"/></filter></defs><g filter="url(#D50YTxuBT1TILilJXE2JWkU33ueNCBhr)"><path d=" M 1758 254.786 L 1758 137.75 C 1758 112.5 1737.5 92 1712.25 92 L 1541.281 92 C 1663.891 184.183 1741.709 242.645 1758 254.786 L 1758 254.786 Z " fill="rgb(165,81,213)"/></g><defs><filter id="PFcMI0O4GpIpAVtq4LCrGhCc36RbP565" x="-200%" y="-200%" width="400%" height="400%" filterUnits="objectBoundingBox" color-interpolation-filters="sRGB"><feGaussianBlur xmlns="http://www.w3.org/2000/svg" in="SourceGraphic" stdDeviation="12.880827188517085"/><feOffset xmlns="http://www.w3.org/2000/svg" dx="0" dy="10" result="pf_100_offsetBlur"/><feFlood xmlns="http://www.w3.org/2000/svg" flood-color="#000000" flood-opacity="0.3"/><feComposite xmlns="http://www.w3.org/2000/svg" in2="pf_100_offsetBlur" operator="in" result="pf_100_dropShadow"/><feBlend xmlns="http://www.w3.org/2000/svg" in="SourceGraphic" in2="pf_100_dropShadow" mode="normal"/></filter></defs><g filter="url(#PFcMI0O4GpIpAVtq4LCrGhCc36RbP565)"><path d=" M 1182 322.401 L 1182 137.75 C 1182 112.5 1202.5 92 1227.75 92 L 1712.25 92 C 1733.945 92 1752.134 107.134 1756.803 127.42 L 1182 322.401 L 1182 322.401 Z " fill="rgb(70,164,241)"/></g><defs><filter id="Zakp8FNOTBJyme0USzktYwnRbMhORqEj" x="-200%" y="-200%" width="400%" height="400%" filterUnits="objectBoundingBox" color-interpolation-filters="sRGB"><feGaussianBlur xmlns="http://www.w3.org/2000/svg" in="SourceGraphic" stdDeviation="12.880827188517085"/><feOffset xmlns="http://www.w3.org/2000/svg" dx="20" dy="0" result="pf_100_offsetBlur"/><feFlood xmlns="http://www.w3.org/2000/svg" flood-color="#000000" flood-opacity="0.5"/><feComposite xmlns="http://www.w3.org/2000/svg" in2="pf_100_offsetBlur" operator="in" result="pf_100_dropShadow"/><feBlend xmlns="http://www.w3.org/2000/svg" in="SourceGraphic" in2="pf_100_dropShadow" mode="normal"/></filter></defs><g filter="url(#Zakp8FNOTBJyme0USzktYwnRbMhORqEj)"><path d=" M 1632.313 92 L 1227.75 92 C 1202.5 92 1182 112.5 1182 137.75 L 1182 366.313 C 1421.246 219.033 1571.979 127.201 1632.313 92 L 1632.313 92 Z " fill="rgb(165,81,213)"/></g></g></svg>